<?xml version="1.0" encoding="iso-8859-1"?>
<!-- Uploaded to: SVG Repo, www.svgrepo.com, Generator: SVG Repo Mixer Tools -->
<!DOCTYPE svg PUBLIC "-//W3C//DTD SVG 1.1//EN" "http://www.w3.org/Graphics/SVG/1.1/DTD/svg11.dtd">
<svg fill="#000000" height="800px" width="800px" version="1.1" id="Capa_1" xmlns="http://www.w3.org/2000/svg" xmlns:xlink="http://www.w3.org/1999/xlink" 
	 viewBox="0 0 454.577 454.577" xml:space="preserve">
<g>
	<path d="M255.706,255.39c0,5.523,4.478,10,10,10s10-4.477,10-10c0-23.269-16.502-42.752-38.417-47.373v-8.844
		c0-5.523-4.478-10-10-10s-10,4.477-10,10v8.844c-21.915,4.621-38.417,24.104-38.417,47.373s16.502,42.752,38.417,47.373v56.057
		c-10.749-4.055-18.417-14.445-18.417-26.595c0-5.523-4.478-10-10-10s-10,4.477-10,10c0,23.269,16.502,42.752,38.417,47.373v8.844
		c0,5.523,4.478,10,10,10s10-4.477,10-10v-8.844c21.915-4.621,38.417-24.104,38.417-47.373s-16.502-42.752-38.417-47.373v-56.057
		C248.038,232.849,255.706,243.239,255.706,255.39z M198.872,255.39c0-12.151,7.668-22.54,18.417-26.595v53.191
		C206.54,277.93,198.872,267.54,198.872,255.39z M255.706,332.224c0,12.151-7.668,22.54-18.417,26.595v-53.191
		C248.038,309.684,255.706,320.073,255.706,332.224z"/>
	<path d="M252.216,111.26l51.245-88.76c2.68-4.641,2.68-10.359,0-15c-2.68-4.641-7.631-7.5-12.99-7.5H164.106
		c-5.359,0-10.311,2.859-12.99,7.5s-2.68,10.359,0,15l51.246,88.76C119.99,123.362,56.55,194.494,56.55,280.174v115.165
		c0,32.664,26.574,59.238,59.238,59.238H338.79c32.664,0,59.237-26.574,59.237-59.238V280.174
		C398.027,194.494,334.588,123.362,252.216,111.26z M264.49,30l-37.201,64.435L190.087,30H264.49z M368.027,395.339
		c0,16.122-13.116,29.238-29.237,29.238H115.788c-16.122,0-29.238-13.116-29.238-29.238V280.174
		c0-77.604,63.136-140.739,140.739-140.739s140.738,63.135,140.738,140.739V395.339z"/>
</g>
</svg>